<?xml version="1.0" standalone="no"?>
<!DOCTYPE svg PUBLIC "-//W3C//DTD SVG 20010904//EN"
 "http://www.w3.org/TR/2001/REC-SVG-20010904/DTD/svg10.dtd">
<svg version="1.0" xmlns="http://www.w3.org/2000/svg"
 width="32.000000pt" height="32.000000pt" viewBox="0 0 32.000000 32.000000"
 preserveAspectRatio="xMidYMid meet">

<g transform="translate(0.000000,32.000000) scale(0.100000,-0.100000)"
fill="#000000" stroke="none">
<path d="M0 160 l0 -160 160 0 160 0 0 160 0 160 -160 0 -160 0 0 -160z m138
118 c30 -30 -1 -94 -33 -68 -18 15 -20 51 -3 68 15 15 21 15 36 0z m80 0 c30
-30 -1 -94 -33 -68 -18 15 -20 51 -3 68 15 15 21 15 36 0z m-136 -73 c8 -19 8
-29 0 -37 -23 -23 -61 14 -48 47 9 23 35 18 48 -10z m206 2 c4 -21 -15 -47
-33 -47 -19 0 -27 28 -14 51 12 24 42 21 47 -4z m-161 -33 c-16 -9 -35 -30
-42 -47 -9 -20 -14 -25 -15 -14 0 21 52 77 72 77 7 -1 0 -8 -15 -16z m94 -13
c16 -16 29 -38 29 -48 -1 -11 -6 -6 -15 14 -7 17 -26 38 -42 47 -15 8 -22 15
-15 16 8 0 27 -13 43 -29z m-111 -104 c10 -4 8 -6 -6 -6 -12 -1 -25 6 -28 15
-5 13 -3 14 6 7 7 -6 20 -13 28 -16z m130 8 c-7 -8 -20 -15 -29 -15 -11 0 -8
5 9 14 33 19 35 19 20 1z m-62 -2 c-10 -2 -26 -2 -35 0 -10 3 -2 5 17 5 19 0
27 -2 18 -5z"/>
<path d="M104 266 c-9 -23 0 -51 16 -51 10 0 15 10 15 29 0 32 -21 47 -31 22z"/>
<path d="M184 266 c-9 -23 0 -51 16 -51 10 0 15 10 15 29 0 32 -21 47 -31 22z"/>
<path d="M40 201 c0 -24 18 -37 31 -24 13 13 1 43 -17 43 -8 0 -14 -9 -14 -19z"/>
<path d="M246 203 c-8 -19 8 -38 23 -29 16 10 13 46 -3 46 -8 0 -17 -8 -20
-17z"/>
</g>
</svg>
