<?xml version="1.0" encoding="UTF-8"?>
<!DOCTYPE svg PUBLIC "-//W3C//DTD SVG 1.1//EN" "http://www.w3.org/Graphics/SVG/1.1/DTD/svg11.dtd">
<svg xmlns="http://www.w3.org/2000/svg" version="1.1" width="32px" height="32px" style="shape-rendering:geometricPrecision; text-rendering:geometricPrecision; image-rendering:optimizeQuality; fill-rule:evenodd; clip-rule:evenodd" xmlns:xlink="http://www.w3.org/1999/xlink">
<g><path style="opacity:1" fill="#020305" d="M -0.5,-0.5 C 7.16667,-0.5 14.8333,-0.5 22.5,-0.5C 22.7373,0.791047 22.404,1.79105 21.5,2.5C 20.1889,-0.133087 18.6889,-0.133087 17,2.5C 14.3953,1.18575 11.8953,1.18575 9.5,2.5C 9.16667,3.16667 8.83333,3.83333 8.5,4.5C 7.59603,5.20895 7.26269,6.20895 7.5,7.5C 5.90097,7.23219 4.56764,7.56552 3.5,8.5C 3.16667,8.5 2.83333,8.5 2.5,8.5C 1.02211,9.44753 0.0221067,10.7809 -0.5,12.5C -0.5,8.16667 -0.5,3.83333 -0.5,-0.5 Z"/></g>
<g><path style="opacity:1" fill="#03070a" d="M 22.5,-0.5 C 25.5,-0.5 28.5,-0.5 31.5,-0.5C 31.5,5.5 31.5,11.5 31.5,17.5C 29.8868,17.9443 28.7202,18.9443 28,20.5C 27.6667,20.1667 27.3333,19.8333 27,19.5C 26.7679,20.7375 26.2679,21.7375 25.5,22.5C 25.2964,20.3146 24.6298,18.3146 23.5,16.5C 24.4916,16.6716 25.1583,16.3382 25.5,15.5C 27.8896,15.3152 28.8896,13.9818 28.5,11.5C 28.6503,7.95032 27.317,6.95032 24.5,8.5C 23.8333,7.16667 23.1667,5.83333 22.5,4.5C 22.1667,3.83333 21.8333,3.16667 21.5,2.5C 22.404,1.79105 22.7373,0.791047 22.5,-0.5 Z"/></g>
<g><path style="opacity:1" fill="#3ba29f" d="M 9.5,2.5 C 14.1911,3.04375 15.5244,5.37708 13.5,9.5C 14.2436,6.05044 12.9103,4.38377 9.5,4.5C 9.5,6.16667 9.5,7.83333 9.5,9.5C 8.54885,8.08134 8.21552,6.41467 8.5,4.5C 8.83333,3.83333 9.16667,3.16667 9.5,2.5 Z"/></g>
<g><path style="opacity:1" fill="#40a6a2" d="M 21.5,2.5 C 21.8333,3.16667 22.1667,3.83333 22.5,4.5C 23.0289,7.60414 22.0289,9.93748 19.5,11.5C 18.4777,11.1445 17.811,10.4778 17.5,9.5C 15.4756,5.37708 16.8089,3.04375 21.5,2.5 Z"/></g>
<g><path style="opacity:1" fill="#091e2e" d="M 13.5,9.5 C 12.1667,9.5 10.8333,9.5 9.5,9.5C 9.5,7.83333 9.5,6.16667 9.5,4.5C 12.9103,4.38377 14.2436,6.05044 13.5,9.5 Z"/></g>
<g><path style="opacity:1" fill="#0a3445" d="M 8.5,4.5 C 8.21552,6.41467 8.54885,8.08134 9.5,9.5C 10.0577,10.7899 11.0577,11.6232 12.5,12C 11.2899,13.0391 10.2899,14.2058 9.5,15.5C 8.27187,16.3065 7.27187,17.3065 6.5,18.5C 5.89022,17.609 5.55688,16.609 5.5,15.5C 7.48405,15.516 8.48405,14.516 8.5,12.5C 8.54656,10.9623 7.87989,9.96227 6.5,9.5C 5.79105,8.59603 4.79105,8.26269 3.5,8.5C 4.56764,7.56552 5.90097,7.23219 7.5,7.5C 7.26269,6.20895 7.59603,5.20895 8.5,4.5 Z"/></g>
<g><path style="opacity:1" fill="#49afaf" d="M 2.5,8.5 C 2.83333,8.5 3.16667,8.5 3.5,8.5C 4.79105,8.26269 5.79105,8.59603 6.5,9.5C 7.87989,9.96227 8.54656,10.9623 8.5,12.5C 8.48405,14.516 7.48405,15.516 5.5,15.5C 4.5041,15.5858 3.67076,15.2524 3,14.5C 2.50454,12.5273 2.33788,10.5273 2.5,8.5 Z"/></g>
<g><path style="opacity:1" fill="#122932" d="M 6.5,9.5 C 8.08749,11.6194 7.75415,13.286 5.5,14.5C 3.78256,13.3315 3.11589,11.6648 3.5,9.5C 4.5,9.5 5.5,9.5 6.5,9.5 Z"/></g>
<g><path style="opacity:1" fill="#368f94" d="M 9.5,9.5 C 10.8333,9.5 12.1667,9.5 13.5,9.5C 16.2968,11.322 18.9635,13.322 21.5,15.5C 19.6931,14.3852 17.6931,13.7186 15.5,13.5C 13.3069,13.7186 11.3069,14.3852 9.5,15.5C 10.2899,14.2058 11.2899,13.0391 12.5,12C 11.0577,11.6232 10.0577,10.7899 9.5,9.5 Z"/></g>
<g><path style="opacity:1" fill="#0b2837" d="M 21.5,2.5 C 16.8089,3.04375 15.4756,5.37708 17.5,9.5C 17.811,10.4778 18.4777,11.1445 19.5,11.5C 22.0289,9.93748 23.0289,7.60414 22.5,4.5C 23.1667,5.83333 23.8333,7.16667 24.5,8.5C 23.8902,9.39105 23.5569,10.391 23.5,11.5C 22.0242,13.7089 22.6909,15.0423 25.5,15.5C 25.1583,16.3382 24.4916,16.6716 23.5,16.5C 22.8333,16.1667 22.1667,15.8333 21.5,15.5C 18.9635,13.322 16.2968,11.322 13.5,9.5C 15.5244,5.37708 14.1911,3.04375 9.5,2.5C 11.8953,1.18575 14.3953,1.18575 17,2.5C 18.6889,-0.133087 20.1889,-0.133087 21.5,2.5 Z"/></g>
<g><path style="opacity:1" fill="#09212f" d="M 17.5,9.5 C 16.7564,6.05044 18.0897,4.38377 21.5,4.5C 21.5,6.16667 21.5,7.83333 21.5,9.5C 20.1667,9.5 18.8333,9.5 17.5,9.5 Z"/></g>
<g><path style="opacity:1" fill="#44a1a3" d="M 25.5,15.5 C 22.6909,15.0423 22.0242,13.7089 23.5,11.5C 23.5569,10.391 23.8902,9.39105 24.5,8.5C 27.317,6.95032 28.6503,7.95032 28.5,11.5C 28.8896,13.9818 27.8896,15.3152 25.5,15.5 Z"/></g>
<g><path style="opacity:1" fill="#0e2d35" d="M 23.5,11.5 C 26.5298,8.51596 27.6965,9.18262 27,13.5C 24.8511,14.8398 23.6845,14.1731 23.5,11.5 Z"/></g>
<g><path style="opacity:1" fill="#040a0f" d="M 2.5,8.5 C 2.33788,10.5273 2.50454,12.5273 3,14.5C 3.67076,15.2524 4.5041,15.5858 5.5,15.5C 5.55688,16.609 5.89022,17.609 6.5,18.5C 5.12013,21.1697 5.45347,23.6697 7.5,26C 13.2273,25.6342 18.894,25.4676 24.5,25.5C 23.7703,27.045 22.437,27.8784 20.5,28C 21.6956,28.6543 21.6956,29.1543 20.5,29.5C 16.3138,27.1956 11.9804,26.8622 7.5,28.5C 7.5,29.5 7.5,30.5 7.5,31.5C 4.83333,31.5 2.16667,31.5 -0.5,31.5C -0.5,25.1667 -0.5,18.8333 -0.5,12.5C 0.0221067,10.7809 1.02211,9.44753 2.5,8.5 Z"/></g>
<g><path style="opacity:1" fill="#030304" d="M 31.5,17.5 C 31.5,22.1667 31.5,26.8333 31.5,31.5C 23.5,31.5 15.5,31.5 7.5,31.5C 7.5,30.5 7.5,29.5 7.5,28.5C 11.9804,26.8622 16.3138,27.1956 20.5,29.5C 21.6956,29.1543 21.6956,28.6543 20.5,28C 22.437,27.8784 23.7703,27.045 24.5,25.5C 24.5569,24.391 24.8902,23.391 25.5,22.5C 26.2679,21.7375 26.7679,20.7375 27,19.5C 27.3333,19.8333 27.6667,20.1667 28,20.5C 28.7202,18.9443 29.8868,17.9443 31.5,17.5 Z"/></g>
<g><path style="opacity:1" fill="#43999d" d="M 9.5,15.5 C 8.69957,17.6073 8.0329,19.7739 7.5,22C 7.70943,23.8715 8.70943,25.0381 10.5,25.5C 14.4925,24.5035 18.4925,24.3368 22.5,25C 23.0814,24.1074 23.4148,23.1074 23.5,22C 22.9671,19.7739 22.3004,17.6073 21.5,15.5C 22.1667,15.8333 22.8333,16.1667 23.5,16.5C 24.6298,18.3146 25.2964,20.3146 25.5,22.5C 24.8902,23.391 24.5569,24.391 24.5,25.5C 18.894,25.4676 13.2273,25.6342 7.5,26C 5.45347,23.6697 5.12013,21.1697 6.5,18.5C 7.27187,17.3065 8.27187,16.3065 9.5,15.5 Z"/></g>
<g><path style="opacity:1" fill="#050e14" d="M 21.5,15.5 C 22.3004,17.6073 22.9671,19.7739 23.5,22C 23.4148,23.1074 23.0814,24.1074 22.5,25C 18.4925,24.3368 14.4925,24.5035 10.5,25.5C 8.70943,25.0381 7.70943,23.8715 7.5,22C 8.0329,19.7739 8.69957,17.6073 9.5,15.5C 11.3069,14.3852 13.3069,13.7186 15.5,13.5C 17.6931,13.7186 19.6931,14.3852 21.5,15.5 Z"/></g>
</svg>
